<svg width="133" height="92" viewBox="0 0 133 92" fill="none" xmlns="http://www.w3.org/2000/svg">
<path d="M44.3735 57.6011C44.0122 58.1187 43.5068 58.5068 42.8574 58.7656C42.2129 59.0195 41.4609 59.1465 40.6016 59.1465C39.7324 59.1465 38.9609 58.9438 38.2871 58.5386C37.6133 58.1284 37.0908 57.5474 36.7197 56.7954C36.3535 56.0435 36.1655 55.1719 36.1558 54.1807V53.2505C36.1558 51.644 36.5293 50.3989 37.2764 49.5151C38.0283 48.6313 39.083 48.1895 40.4404 48.1895C41.5537 48.1895 42.4497 48.4751 43.1284 49.0464C43.8071 49.6128 44.2222 50.4185 44.3735 51.4634H42.9673C42.7036 50.0522 41.8638 49.3467 40.4478 49.3467C39.5054 49.3467 38.79 49.6787 38.3018 50.3428C37.8184 51.002 37.5742 51.959 37.5693 53.2139V54.0854C37.5693 55.2817 37.8428 56.2339 38.3896 56.9419C38.9365 57.645 39.6763 57.9966 40.6089 57.9966C41.1362 57.9966 41.5977 57.938 41.9932 57.8208C42.3887 57.7036 42.7158 57.5059 42.9746 57.2275V54.8325H40.5063V53.6899H44.3735V57.6011ZM54.9277 54.0122C54.9277 55.0571 54.752 55.9702 54.4004 56.7515C54.0488 57.5278 53.5508 58.1211 52.9062 58.5312C52.2617 58.9414 51.5098 59.1465 50.6504 59.1465C49.8105 59.1465 49.0659 58.9414 48.4165 58.5312C47.7671 58.1162 47.2617 57.5278 46.9004 56.7661C46.5439 55.9995 46.3608 55.1133 46.3511 54.1074V53.3384C46.3511 52.313 46.5293 51.4072 46.8857 50.6211C47.2422 49.835 47.7451 49.2344 48.3945 48.8193C49.0488 48.3994 49.7959 48.1895 50.6357 48.1895C51.4902 48.1895 52.2422 48.397 52.8916 48.812C53.5459 49.2222 54.0488 49.8203 54.4004 50.6064C54.752 51.3877 54.9277 52.2983 54.9277 53.3384V54.0122ZM53.5288 53.3237C53.5288 52.0591 53.2749 51.0898 52.7671 50.416C52.2593 49.7373 51.5488 49.3979 50.6357 49.3979C49.7471 49.3979 49.0464 49.7373 48.5337 50.416C48.0259 51.0898 47.7646 52.0273 47.75 53.2285V54.0122C47.75 55.2378 48.0063 56.2021 48.519 56.9053C49.0366 57.6035 49.7471 57.9526 50.6504 57.9526C51.5586 57.9526 52.2617 57.623 52.7598 56.9639C53.2578 56.2998 53.5142 55.3501 53.5288 54.1147V53.3237ZM60.7578 59V48.3359H64.2441C65.4014 48.3359 66.2705 48.5752 66.8516 49.0537C67.4375 49.5322 67.7305 50.2402 67.7305 51.1777C67.7305 51.6758 67.5889 52.1177 67.3057 52.5034C67.0225 52.8843 66.6367 53.1797 66.1484 53.3896C66.7246 53.5508 67.1787 53.8584 67.5107 54.3125C67.8477 54.7617 68.0161 55.2988 68.0161 55.9238C68.0161 56.8809 67.7061 57.6328 67.0859 58.1797C66.4658 58.7266 65.5894 59 64.4565 59H60.7578ZM62.1641 54.0122V57.8501H64.4858C65.1401 57.8501 65.6553 57.6816 66.0312 57.3447C66.4121 57.0029 66.6025 56.5342 66.6025 55.9385C66.6025 54.6543 65.9043 54.0122 64.5078 54.0122H62.1641ZM62.1641 52.8843H64.2881C64.9033 52.8843 65.394 52.7305 65.7603 52.4229C66.1313 52.1152 66.3169 51.6978 66.3169 51.1704C66.3169 50.5845 66.146 50.1597 65.8042 49.896C65.4624 49.6274 64.9424 49.4932 64.2441 49.4932H62.1641V52.8843ZM75.9922 56.2168H71.5244L70.521 59H69.0708L73.1431 48.3359H74.3735L78.4531 59H77.0103L75.9922 56.2168ZM71.9492 55.0596H75.5747L73.7583 50.0718L71.9492 55.0596ZM87.645 55.6162C87.5132 56.7441 87.0957 57.6157 86.3926 58.231C85.6943 58.8413 84.7642 59.1465 83.6021 59.1465C82.3423 59.1465 81.3315 58.6948 80.5698 57.7915C79.813 56.8882 79.4346 55.6797 79.4346 54.166V53.1406C79.4346 52.1494 79.6104 51.2778 79.9619 50.5259C80.3184 49.7739 80.8213 49.1978 81.4707 48.7974C82.1201 48.3921 82.8721 48.1895 83.7266 48.1895C84.8594 48.1895 85.7676 48.5068 86.4512 49.1416C87.1348 49.7715 87.5327 50.6455 87.645 51.7637H86.2314C86.1094 50.9141 85.8433 50.2988 85.4331 49.918C85.0278 49.5371 84.459 49.3467 83.7266 49.3467C82.8281 49.3467 82.1226 49.6787 81.6099 50.3428C81.1021 51.0068 80.8481 51.9517 80.8481 53.1772V54.21C80.8481 55.3672 81.0898 56.2876 81.5732 56.9712C82.0566 57.6548 82.7329 57.9966 83.6021 57.9966C84.3833 57.9966 84.9814 57.8208 85.3965 57.4692C85.8164 57.1128 86.0947 56.4951 86.2314 55.6162H87.645ZM92.2812 54.0415L90.9775 55.3965V59H89.5713V48.3359H90.9775V53.6094L95.7163 48.3359H97.4155L93.2188 53.0454L97.7451 59H96.0605L92.2812 54.0415Z" fill="white"/>
<path opacity="0.8" d="M102 31L66.5 2L31 31" stroke="white" stroke-width="3" stroke-linecap="round"/>
</svg>
